<svg width="170" height="40" viewBox="0 0 170 40" fill="none" xmlns="http://www.w3.org/2000/svg">
<path d="M20.9431 11.9396L14.0443 15.9314L26.085 22.8819C27.7221 23.9864 27.1744 24.3051 24.4373 25.8845C24.5208 25.836 17.32 29.9947 17.32 29.9947C14.0625 31.8745 13.9714 31.8397 10.6259 29.9067L7.14235 27.8948L0.234375 31.8821L12.3525 38.8781C13.4025 39.4835 14.6952 39.4835 15.7436 38.8781L34.7682 27.8933V19.9172L20.9431 11.9381V11.9396Z" fill="#0367FF"/>
<path d="M22.65 0.692314C21.6001 0.086937 20.3074 0.086937 19.259 0.692314L0.234375 11.6771V19.6532L14.0458 27.6324L20.9583 23.6405L8.91752 16.6901C7.28042 15.5855 7.82814 15.2669 10.5652 13.6874C10.3164 13.8316 17.6826 9.57725 17.6826 9.57725C20.9401 7.69739 21.0311 7.73229 24.3766 9.66525L27.8602 11.6771L34.7667 7.68981L22.65 0.692314Z" fill="#0367FF"/>
<path d="M52.7812 29.1797V25.7909H63.298V22.1977H52.7812V15.9169L55.8778 12.8203H67.4462V16.209H56.9295V19.627H67.4462V26.1707L64.4373 29.1797H52.7812Z" fill="#002E7A"/>
<path d="M69.4625 33.2695V12.8203H81.4107L84.741 16.1506V25.8494L81.4107 29.1797H73.6108V33.2695H69.4625ZM80.5927 16.3259H73.6108V25.6741H80.5927V16.3259Z" fill="#002E7A"/>
<path d="M86.5621 26.0831V15.9169L89.6587 12.8203H98.3642L101.461 15.9169V26.0831L98.3642 29.1797H89.6587L86.5621 26.0831ZM90.7104 25.7909H97.3125V16.209H90.7104V25.7909Z" fill="#002E7A"/>
<path d="M103.472 10.1911L107.62 8.73047V13.4046H113.93V16.9101H107.62V25.6741H113.93V29.1797H106.685L103.472 25.9662V10.1911Z" fill="#002E7A"/>
<path d="M114.92 25.9662V19.8315L125.554 19.5393V16.3259H115.505V12.8203H126.489L129.702 16.0338V29.1797H118.134L114.92 25.9662ZM119.069 22.4022V25.7909H125.554V21.818L119.069 22.4022Z" fill="#002E7A"/>
<path d="M131.918 29.1797V8.73047H136.066V12.8203H143.866L147.196 16.1506V25.8494L143.866 29.1797H131.918ZM136.066 25.6741H143.048V16.3259H136.066V25.6741Z" fill="#002E7A"/>
<path d="M149.222 29.1797V8.73047H153.37V29.1797H149.222Z" fill="#002E7A"/>
<path d="M155.395 26.0831V15.9169L158.491 12.8203H170.001V21.9932H159.543V25.6741H169.417V29.1797H158.491L155.395 26.0831ZM159.543 19.7146L166.379 19.4225V16.0922H159.543V19.7146Z" fill="#002E7A"/>
</svg>
