<svg xmlns="http://www.w3.org/2000/svg" viewBox="0 0 500 200" fill="#FFFFFF" role="img" aria-label="Stretch">
  <path d="M62.8,97.7C55.3,97.1,49,96.3,49,92.5c0-0.9,0.4-1.8,1.1-2.5c2.3-2.3,7.3-3,11.3-3c5.6,0,10.3,1.7,13.4,4.8l0.3,0.3l3.9-3.3l-0.4-0.4c-4.4-3.9-10.7-6.1-17.4-6.1c-4.6,0-8.9,0.9-12,2.6c-3.5,1.9-5.3,4.6-5.3,7.7c0,3.5,1.9,8.4,17.9,9.8c9.2,0.8,13.5,1.8,13.5,5.3c0,3.9-4.6,6.2-12.3,6.2c-6.7,0-12-1.9-16.6-6l-0.4-0.3l-3.5,3.7l0.4,0.3c5.1,4.5,12.2,7,19.9,7c10.7,0,17.6-4.4,17.6-11.2C80.5,100.1,72,98.4,62.8,97.7z"/>
  <polygon points="88.4,83.3 88.4,87.9 104.2,87.9 104.2,117.7 109.1,117.7 109.1,87.9 125,87.9 125,83.3"/>
  <path d="M161.8,104.6c6.1-1,9.9-5,9.9-10.5c0-6.6-5.2-10.8-13.3-10.8h-22.9v34.4h5v-12.8h15.2l11.1,12.8h6.5L161.8,104.6z M166.6,94.1c0,2.8-1.5,6.1-8.5,6.1h-17.7V88h17.7C165.1,88,166.6,91.3,166.6,94.1z"/>
  <polygon points="315.3,88 315.3,83.3 185.4,83.3 185.4,117.7 315.3,117.7 315.3,113 190.4,113 190.4,102.6 315.3,102.6 315.3,97.9 190.4,97.9 190.4,88"/>
  <polygon points="327.5,83.3 327.5,87.9 343.3,87.9 343.3,117.7 348.3,117.7 348.3,87.9 364.1,87.9 364.1,83.3"/>
  <path d="M404.2,106.9c-2.3,4-6.7,6.2-12.8,6.2c-9.9,0-15.6-4.9-15.6-13.5c0-8.6,5.7-13.5,15.6-13.5c6,0,10.4,2.1,12.8,6.2l0.2,0.4l4.7-2.4l-0.3-0.5c-3.5-5.4-9.6-8.4-17.4-8.4c-12.8,0-20.7,7-20.7,18.2c0,11.2,7.9,18.2,20.6,18.2c7.9,0,14.1-3,17.6-8.4l0.3-0.5l-4.7-2.4L404.2,106.9z"/>
  <polygon points="452.4,83.3 452.4,97.9 425.9,97.9 425.9,83.3 420.9,83.3 420.9,117.7 425.9,117.7 425.9,102.7 452.4,102.7 452.4,117.7 457.4,117.7 457.4,83.3"/>
</svg>
