<svg xmlns="http://www.w3.org/2000/svg" viewBox="0 0 40 40" fill="none">
  <rect width="40" height="40" rx="6" fill="#9FFFDC"/>
  <g transform="translate(20 20)">
    <g transform="scale(0.9) translate(-64.75 -102)">
      <path
        d="M62.8,97.7C55.3,97.1,49,96.3,49,92.5c0-0.9,0.4-1.8,1.1-2.5c2.3-2.3,7.3-3,11.3-3c5.6,0,10.3,1.7,13.4,4.8l0.3,0.3l3.9-3.3l-0.4-0.4c-4.4-3.9-10.7-6.1-17.4-6.1c-4.6,0-8.9,0.9-12,2.6c-3.5,1.9-5.3,4.6-5.3,7.7c0,3.5,1.9,8.4,17.9,9.8c9.2,0.8,13.5,1.8,13.5,5.3c0,3.9-4.6,6.2-12.3,6.2c-6.7,0-12-1.9-16.6-6l-0.4-0.3l-3.5,3.7l0.4,0.3c5.1,4.5,12.2,7,19.9,7c10.7,0,17.6-4.4,17.6-11.2C80.5,100.1,72,98.4,62.8,97.7z"
        fill="#06091D"
      />
    </g>
  </g>
</svg>
